<svg xmlns="http://www.w3.org/2000/svg" viewBox="0 0 720 420" role="img" aria-labelledby="title desc">
  <title id="title">Winpress logo</title>
  <desc id="desc">Cyan Winpress wordmark on a black circular badge.</desc>
  <defs>
    <filter id="glow" x="-30%" y="-30%" width="160%" height="160%">
      <feGaussianBlur stdDeviation="3" result="blur" />
      <feMerge>
        <feMergeNode in="blur" />
        <feMergeNode in="SourceGraphic" />
      </feMerge>
    </filter>
  </defs>
  <rect width="720" height="420" fill="none" />
  <circle cx="360" cy="210" r="174" fill="#010304" stroke="#07131b" stroke-width="8" />
  <circle cx="360" cy="210" r="166" fill="none" stroke="#10c8f1" stroke-width="2" opacity=".62" />
  <g filter="url(#glow)" fill="none" stroke="#45fbff" stroke-width="12" stroke-linecap="round" stroke-linejoin="round">
    <path d="M251 184h265v88H367" />
    <path d="M252 184l-12 12v30" />
    <path d="M236 196h-46" />
    <path d="M352 255v50" />
    <path d="M352 255h-190" stroke-width="5" opacity=".9" />
    <path d="M343 267h-178" stroke-width="5" opacity=".75" />
  </g>
  <g fill="#45fbff" filter="url(#glow)">
    <text x="112" y="238" font-family="Arial Black, Arial, sans-serif" font-size="78" font-weight="900" letter-spacing="2">WINPRESS</text>
    <path d="M141 163l6 16 16 6-16 6-6 16-6-16-16-6 16-6z" />
    <path d="M116 180l4 10 10 4-10 4-4 10-4-10-10-4 10-4z" opacity=".8" />
  </g>
</svg>
